<?xml version="1.0" encoding="UTF-8"?>
<!DOCTYPE svg PUBLIC "-//W3C//DTD SVG 1.1//EN" "http://www.w3.org/Graphics/SVG/1.1/DTD/svg11.dtd">
<svg xmlns="http://www.w3.org/2000/svg" version="1.1" width="225px" height="225px" style="shape-rendering:geometricPrecision; text-rendering:geometricPrecision; image-rendering:optimizeQuality; fill-rule:evenodd; clip-rule:evenodd" xmlns:xlink="http://www.w3.org/1999/xlink">
<g><path style="opacity:1" fill="#1c1339" d="M 141.5,75.5 C 140.957,75.56 140.624,75.8933 140.5,76.5C 150.478,77.4985 160.478,77.8319 170.5,77.5C 175.657,79.6211 176.823,83.2877 174,88.5C 140.877,129.291 107.377,169.791 73.5,210C 67.6707,211.82 64.0041,209.82 62.5,204C 64.3933,193.363 66.7266,182.863 69.5,172.5C 71.0395,170.162 71.7062,167.495 71.5,164.5C 72.2085,158.335 73.5419,152.335 75.5,146.5C 77.0395,144.162 77.7062,141.495 77.5,138.5C 78.913,135.781 79.5797,132.781 79.5,129.5C 79.366,127.708 79.6993,126.042 80.5,124.5C 81.4345,123.432 81.7678,122.099 81.5,120.5C 82.0431,120.44 82.3764,120.107 82.5,119.5C 73.1904,118.502 63.8571,118.168 54.5,118.5C 51.0755,118.243 49.0755,116.41 48.5,113C 51.6271,98.3243 55.2938,83.8243 59.5,69.5C 62.0242,66.761 63.0242,63.4276 62.5,59.5C 65.8542,43.9133 70.5208,28.7466 76.5,14C 104.5,13.3333 132.5,13.3333 160.5,14C 164.292,16.0527 165.458,19.2194 164,23.5C 156.785,40.9861 149.285,58.3195 141.5,75.5 Z"/></g>
<g><path style="opacity:1" fill="#615bb1" d="M 92.5,105.5 C 83.5,104.833 74.5,104.167 65.5,103.5C 71.8724,78.4218 78.5391,53.4218 85.5,28.5C 105.833,27.1667 126.167,27.1667 146.5,28.5C 138.08,46.8375 130.08,65.3375 122.5,84C 122.598,86.8729 123.932,88.8729 126.5,90C 135.5,90.3333 144.5,90.6667 153.5,91C 129.956,118.876 106.789,147.042 84,175.5C 87.6847,156.091 92.018,136.758 97,117.5C 97.6667,114.5 97.6667,111.5 97,108.5C 95.871,106.859 94.371,105.859 92.5,105.5 Z"/></g>
<g><path style="opacity:1" fill="#fbfbfd" d="M 98.5,38.5 C 105.799,37.3714 108.965,40.3714 108,47.5C 104.333,60.8333 100.667,74.1667 97,87.5C 94.4406,90.3492 91.2739,91.1825 87.5,90C 85.2738,88.3805 83.9404,86.2138 83.5,83.5C 87.2029,69.0197 91.3696,54.6864 96,40.5C 96.9947,39.9341 97.828,39.2674 98.5,38.5 Z"/></g>
<g><path style="opacity:1" fill="#5d5772" d="M 62.5,59.5 C 63.0242,63.4276 62.0242,66.761 59.5,69.5C 60.1301,65.9523 61.1301,62.6189 62.5,59.5 Z"/></g>
<g><path style="opacity:0.939" fill="#92909d" d="M 141.5,75.5 C 151.359,75.5569 161.026,76.2235 170.5,77.5C 160.478,77.8319 150.478,77.4985 140.5,76.5C 140.624,75.8933 140.957,75.56 141.5,75.5 Z"/></g>
<g><path style="opacity:1" fill="#3e3773" d="M 65.5,103.5 C 74.5,104.167 83.5,104.833 92.5,105.5C 83.1429,105.832 73.8096,105.498 64.5,104.5C 64.6236,103.893 64.9569,103.56 65.5,103.5 Z"/></g>
<g><path style="opacity:0.94" fill="#8e8b99" d="M 54.5,118.5 C 63.8571,118.168 73.1904,118.502 82.5,119.5C 82.3764,120.107 82.0431,120.44 81.5,120.5C 78.7131,119.523 75.7131,119.19 72.5,119.5C 66.31,119.823 60.31,119.49 54.5,118.5 Z"/></g>
<g><path style="opacity:0.058" fill="#eeeef0" d="M 72.5,119.5 C 75.7131,119.19 78.7131,119.523 81.5,120.5C 81.7678,122.099 81.4345,123.432 80.5,124.5C 80.5,123.167 80.5,121.833 80.5,120.5C 77.6146,120.806 74.9479,120.473 72.5,119.5 Z"/></g>
<g><path style="opacity:0.957" fill="#817c92" d="M 79.5,129.5 C 79.5797,132.781 78.913,135.781 77.5,138.5C 77.4203,135.219 78.087,132.219 79.5,129.5 Z"/></g>
<g><path style="opacity:0.502" fill="#878194" d="M 77.5,138.5 C 77.7062,141.495 77.0395,144.162 75.5,146.5C 75.5651,143.572 76.2318,140.905 77.5,138.5 Z"/></g>
<g><path style="opacity:0.451" fill="#888296" d="M 71.5,164.5 C 71.7062,167.495 71.0395,170.162 69.5,172.5C 69.5651,169.572 70.2318,166.905 71.5,164.5 Z"/></g>
</svg>
